# xmcd
#
# Track frame offsets: 
#        150
#        34388
#        66375
#        96675
#        128475
#        155438
#        212779
#        245142
#
# Disc length: 3631 seconds
#
# Revision: 0
# Processed by: cddbd v1.4PL0 Copyright (c) Steve Scherf et al.
# Submitted via: ExactAudioCopy v0.90b4
#
DISCID=7a0e2d08
DTITLE=Mike Dugan, Craig Thatcher Dream Band - LIVE! at the Main Stree
DTITLE=t Theater
DYEAR=2003
DGENRE=Blues
TTITLE0=Rust Belt Blues
TTITLE1=Rollercoaster Blues
TTITLE2=There's No Talkin' To Ya
TTITLE3=Got My Eye On You
TTITLE4=(You Can) Count On Me
TTITLE5=I Call It The Blues
TTITLE6=Talk To Me Baby
TTITLE7=Turn It On and Light It Up
EXTD=
EXTT0=
EXTT1=
EXTT2=
EXTT3=
EXTT4=
EXTT5=
EXTT6=
EXTT7=
PLAYORDER=
